<svg width="31" height="30" viewBox="0 0 31 30" fill="none" xmlns="http://www.w3.org/2000/svg">
<path d="M14.0417 21.875H16.9584V16.0417H22.7917V13.125H16.9584V7.29167H14.0417V13.125H8.20841V16.0417H14.0417V21.875ZM15.5001 29.1667C13.4827 29.1667 11.5869 28.7839 9.81258 28.0182C8.03828 27.2526 6.49487 26.2135 5.18237 24.901C3.86987 23.5885 2.83081 22.0451 2.06519 20.2708C1.29956 18.4965 0.916748 16.6007 0.916748 14.5833C0.916748 12.566 1.29956 10.6701 2.06519 8.89583C2.83081 7.12153 3.86987 5.57812 5.18237 4.26562C6.49487 2.95312 8.03828 1.91406 9.81258 1.14844C11.5869 0.382812 13.4827 0 15.5001 0C17.5174 0 19.4133 0.382812 21.1876 1.14844C22.9619 1.91406 24.5053 2.95312 25.8178 4.26562C27.1303 5.57812 28.1694 7.12153 28.935 8.89583C29.7006 10.6701 30.0834 12.566 30.0834 14.5833C30.0834 16.6007 29.7006 18.4965 28.935 20.2708C28.1694 22.0451 27.1303 23.5885 25.8178 24.901C24.5053 26.2135 22.9619 27.2526 21.1876 28.0182C19.4133 28.7839 17.5174 29.1667 15.5001 29.1667ZM15.5001 26.25C18.757 26.25 21.5157 25.1198 23.7761 22.8594C26.0365 20.599 27.1667 17.8403 27.1667 14.5833C27.1667 11.3264 26.0365 8.56771 23.7761 6.30729C21.5157 4.04687 18.757 2.91667 15.5001 2.91667C12.2431 2.91667 9.48446 4.04687 7.22404 6.30729C4.96362 8.56771 3.83341 11.3264 3.83341 14.5833C3.83341 17.8403 4.96362 20.599 7.22404 22.8594C9.48446 25.1198 12.2431 26.25 15.5001 26.25Z" fill="#2D4271"/>
</svg>
