<svg width="30" height="31" viewBox="0 0 30 31" fill="none" xmlns="http://www.w3.org/2000/svg">
<path d="M13.75 21.75H16.25V16.75H21.25V14.25H16.25V9.25H13.75V14.25H8.75V16.75H13.75V21.75ZM15 28C13.2708 28 11.6458 27.6719 10.125 27.0156C8.60417 26.3594 7.28125 25.4688 6.15625 24.3438C5.03125 23.2188 4.14062 21.8958 3.48438 20.375C2.82812 18.8542 2.5 17.2292 2.5 15.5C2.5 13.7708 2.82812 12.1458 3.48438 10.625C4.14062 9.10417 5.03125 7.78125 6.15625 6.65625C7.28125 5.53125 8.60417 4.64062 10.125 3.98438C11.6458 3.32812 13.2708 3 15 3C16.7292 3 18.3542 3.32812 19.875 3.98438C21.3958 4.64062 22.7188 5.53125 23.8438 6.65625C24.9688 7.78125 25.8594 9.10417 26.5156 10.625C27.1719 12.1458 27.5 13.7708 27.5 15.5C27.5 17.2292 27.1719 18.8542 26.5156 20.375C25.8594 21.8958 24.9688 23.2188 23.8438 24.3438C22.7188 25.4688 21.3958 26.3594 19.875 27.0156C18.3542 27.6719 16.7292 28 15 28ZM15 25.5C17.7917 25.5 20.1562 24.5312 22.0938 22.5938C24.0312 20.6562 25 18.2917 25 15.5C25 12.7083 24.0312 10.3438 22.0938 8.40625C20.1562 6.46875 17.7917 5.5 15 5.5C12.2083 5.5 9.84375 6.46875 7.90625 8.40625C5.96875 10.3438 5 12.7083 5 15.5C5 18.2917 5.96875 20.6562 7.90625 22.5938C9.84375 24.5312 12.2083 25.5 15 25.5Z" fill="#F4F4F4"/>
</svg>
