<svg width="30" height="30" viewBox="0 0 30 30" fill="none" xmlns="http://www.w3.org/2000/svg">
<path d="M15 13.125L11.25 9.375V2.5H18.75V9.375L15 13.125ZM20.625 18.75L16.875 15L20.625 11.25H27.5V18.75H20.625ZM2.5 18.75V11.25H9.375L13.125 15L9.375 18.75H2.5ZM11.25 27.5V20.625L15 16.875L18.75 20.625V27.5H11.25ZM15 9.5625L16.25 8.3125V5H13.75V8.3125L15 9.5625ZM5 16.25H8.3125L9.5625 15L8.3125 13.75H5V16.25ZM13.75 25H16.25V21.6875L15 20.4375L13.75 21.6875V25ZM21.6875 16.25H25V13.75H21.6875L20.4375 15L21.6875 16.25Z" fill="#2D4271"/>
</svg>
