<svg width="30" height="30" viewBox="0 0 30 30" fill="none" xmlns="http://www.w3.org/2000/svg">
<path d="M3.75 26.25V20.3125L14.9375 9.125L13.125 7.375L14.9375 5.625L17.3125 8L21.1875 4.125C21.2917 4.02083 21.4219 3.9375 21.5781 3.875C21.7344 3.8125 21.8958 3.78125 22.0625 3.78125C22.2292 3.78125 22.3854 3.8125 22.5312 3.875C22.6771 3.9375 22.8125 4.02083 22.9375 4.125L25.875 7.0625C25.9792 7.1875 26.0625 7.32292 26.125 7.46875C26.1875 7.61458 26.2188 7.77083 26.2188 7.9375C26.2188 8.10417 26.1875 8.26562 26.125 8.42188C26.0625 8.57812 25.9792 8.70833 25.875 8.8125L22.0312 12.6562L24.4062 15.0938L22.625 16.875L20.875 15.0625L9.6875 26.25H3.75ZM6.25 23.75H8.6875L19.0625 13.3125L16.6875 10.9375L6.25 21.3125V23.75ZM20.2188 10.9375L23.2188 7.9375L22.0625 6.78125L19.0625 9.78125L20.2188 10.9375Z" fill="#2D4271"/>
</svg>
